<?xml version="1.0" standalone="no"?>
<!DOCTYPE svg PUBLIC "-//W3C//DTD SVG 20010904//EN"
 "http://www.w3.org/TR/2001/REC-SVG-20010904/DTD/svg10.dtd">
<svg version="1.0" xmlns="http://www.w3.org/2000/svg"
 width="1500.000000pt" height="1500.000000pt" viewBox="0 0 1500.000000 1500.000000"
 preserveAspectRatio="xMidYMid meet">
<metadata>
Created by potrace 1.14, written by Peter Selinger 2001-2017
</metadata>
<g transform="translate(0.000000,1500.000000) scale(0.100000,-0.100000)"
fill="#000000" stroke="none">
<path d="M3445 9431 c-159 -52 -269 -167 -311 -324 -15 -59 -12 -197 6 -242
36 -88 60 -126 115 -180 65 -65 138 -105 225 -124 43 -9 697 -11 2910 -9
l2855 3 55 21 c193 74 304 242 295 443 -8 170 -92 303 -239 378 -111 56 96 53
-3001 52 -2626 -1 -2864 -2 -2910 -18z"/>
<path d="M5175 7928 c-201 -71 -318 -239 -311 -448 5 -177 123 -339 292 -403
l59 -22 2853 -3 c2494 -2 2861 0 2917 13 212 49 343 207 351 421 7 185 -82
330 -254 415 l-87 44 -2880 2 -2880 2 -60 -21z"/>
<path d="M3426 6423 c-239 -88 -355 -321 -282 -563 29 -95 129 -214 218 -258
113 -56 -79 -52 3006 -52 2692 0 2850 1 2902 18 86 28 140 60 200 121 93 94
131 195 125 325 -5 101 -7 111 -48 195 -47 96 -155 185 -272 224 -46 15 -271
16 -2915 16 l-2865 0 -69 -26z"/>
</g>
</svg>
